<svg xmlns="http://www.w3.org/2000/svg" width="500" height="500" style="width:100%;height:100%"><defs><clipPath id="a"><path d="M0 0h500v500H0z"/></clipPath></defs><g clip-path="url(#a)"><g display="block"><path stroke-linecap="round" stroke-linejoin="round" stroke="#FFF" stroke-width="12.04" d="M249.971 293.401l-.008 57.099-.013 86.722h-54.159c-8.323-13.141 17.54-25.82 17.54-25.82l-1.277-62.383-1.917-93.634M249.985 293.401l.009 57.099.012 86.722h54.159c8.323-13.141-17.54-25.82-17.54-25.82l1.276-61.925 1.939-94.092" fill="none"/></g><path stroke-linecap="round" stroke-linejoin="round" stroke="#FFF" stroke-width="12.04" d="M245.562 122.433h19.706c3.463 0 6.297-2.834 6.297-6.297V84.24c0-11.579-9.474-21.052-21.053-21.052h-4.95c-11.579 0-21.052 9.473-21.052 21.052v17.14c0 11.579 9.473 21.053 21.052 21.053z" fill="none" display="block"/><g display="block"><path stroke-linecap="round" stroke-linejoin="round" stroke="#DFAC88" stroke-width="12.04" d="M210.099 181.695l.038 73.69h79.706v-73.69M210.099 181.695l-41.925-58.677-40.779-57.072s21.71-23.29 37.74 4.37l26.109 34.752 37.611 50.058M271.145 155.126l34.604-46.064 29.106-38.746c16.04-27.66 37.75-4.37 37.75-4.37l-41.949 58.666-40.811 57.074M271.145 155.126h-42.29" fill="none"/></g></g></svg>
